# xmcd
#
# Track frame offsets:
#	150
#	11316
#	35930
#	57270
#	71747
#	89037
#	105639
#	118015
#	138275
#	156355
#	169558
#	183408
#
# Disc length: 2804 seconds
#
# Revision: 0
# Processed by: cddbd v1.4PL0 Copyright (c) Steve Scherf et al.
# Submitted via: audiograbber 1.81.01
#
DISCID=a50af20c
DTITLE=Burns, Brenda - A Song away from You
DYEAR=1900
DGENRE=
TTITLE0=It's Been Too Long
TTITLE1=I Have the Right
TTITLE2=One Woman Man
TTITLE3=Short, Fat, Ugly and Bald
TTITLE4=A Song away from You
TTITLE5=What Ya Usta Do
TTITLE6=Housework
TTITLE7=Touch of Love
TTITLE8=I Can Play that Way Too
TTITLE9=Gimme Back My Heart
TTITLE10=Broken Hearts Row
TTITLE11=Trust in Him
EXTD=
EXTT0=
EXTT1=
EXTT2=
EXTT3=
EXTT4=
EXTT5=
EXTT6=
EXTT7=
EXTT8=
EXTT9=
EXTT10=
EXTT11=
PLAYORDER=
